<?xml version="1.0" encoding="UTF-8"?>
<svg id="Layer_2" data-name="Layer 2" xmlns="http://www.w3.org/2000/svg" viewBox="0 0 71.44 65.15">
  <defs>
    <style>
      .cls-1 {
        fill: #f05423;
        stroke-width: 0px;
      }
    </style>
  </defs>
  <g id="Layer_1-2" data-name="Layer 1">
    <g>
      <circle class="cls-1" cx="2.38" cy="2.38" r="2.38"/>
      <circle class="cls-1" cx="13.49" cy="2.38" r="2.38"/>
      <circle class="cls-1" cx="24.6" cy="2.38" r="2.38"/>
      <circle class="cls-1" cx="35.72" cy="2.38" r="2.38"/>
      <circle class="cls-1" cx="46.83" cy="2.38" r="2.38"/>
      <circle class="cls-1" cx="57.95" cy="2.38" r="2.38"/>
      <circle class="cls-1" cx="69.06" cy="2.38" r="2.38"/>
      <circle class="cls-1" cx="2.38" cy="12.44" r="2.38"/>
      <circle class="cls-1" cx="13.49" cy="12.44" r="2.38"/>
      <circle class="cls-1" cx="24.6" cy="12.44" r="2.38"/>
      <circle class="cls-1" cx="35.72" cy="12.44" r="2.38"/>
      <circle class="cls-1" cx="46.83" cy="12.44" r="2.38"/>
      <circle class="cls-1" cx="57.95" cy="12.44" r="2.38"/>
      <circle class="cls-1" cx="69.06" cy="12.44" r="2.38"/>
      <circle class="cls-1" cx="2.38" cy="22.51" r="2.38"/>
      <circle class="cls-1" cx="13.49" cy="22.51" r="2.38"/>
      <circle class="cls-1" cx="24.6" cy="22.51" r="2.38"/>
      <circle class="cls-1" cx="35.72" cy="22.51" r="2.38"/>
      <circle class="cls-1" cx="46.83" cy="22.51" r="2.38"/>
      <circle class="cls-1" cx="57.95" cy="22.51" r="2.38"/>
      <circle class="cls-1" cx="69.06" cy="22.51" r="2.38"/>
      <circle class="cls-1" cx="2.38" cy="32.58" r="2.38"/>
      <circle class="cls-1" cx="13.49" cy="32.58" r="2.38"/>
      <circle class="cls-1" cx="24.6" cy="32.58" r="2.38"/>
      <circle class="cls-1" cx="35.72" cy="32.58" r="2.38"/>
      <circle class="cls-1" cx="46.83" cy="32.58" r="2.38"/>
      <circle class="cls-1" cx="57.95" cy="32.58" r="2.38"/>
      <circle class="cls-1" cx="69.06" cy="32.58" r="2.38"/>
      <circle class="cls-1" cx="2.38" cy="42.64" r="2.38"/>
      <circle class="cls-1" cx="13.49" cy="42.64" r="2.38"/>
      <circle class="cls-1" cx="24.6" cy="42.64" r="2.38"/>
      <circle class="cls-1" cx="35.72" cy="42.64" r="2.38"/>
      <circle class="cls-1" cx="46.83" cy="42.64" r="2.38"/>
      <circle class="cls-1" cx="57.95" cy="42.64" r="2.38"/>
      <circle class="cls-1" cx="69.06" cy="42.64" r="2.38"/>
      <circle class="cls-1" cx="2.38" cy="52.71" r="2.38"/>
      <circle class="cls-1" cx="13.49" cy="52.71" r="2.38"/>
      <circle class="cls-1" cx="24.6" cy="52.71" r="2.38"/>
      <circle class="cls-1" cx="35.72" cy="52.71" r="2.38"/>
      <circle class="cls-1" cx="46.83" cy="52.71" r="2.38"/>
      <circle class="cls-1" cx="57.95" cy="52.71" r="2.38"/>
      <circle class="cls-1" cx="69.06" cy="52.71" r="2.38"/>
      <circle class="cls-1" cx="2.38" cy="62.78" r="2.38"/>
      <circle class="cls-1" cx="13.49" cy="62.78" r="2.38"/>
      <circle class="cls-1" cx="24.6" cy="62.78" r="2.38"/>
      <circle class="cls-1" cx="35.72" cy="62.78" r="2.38"/>
      <circle class="cls-1" cx="46.83" cy="62.78" r="2.38"/>
      <circle class="cls-1" cx="57.95" cy="62.78" r="2.38"/>
      <circle class="cls-1" cx="69.06" cy="62.78" r="2.38"/>
    </g>
  </g>
</svg>