<?xml version="1.0" encoding="UTF-8"?>
<svg id="Layer_1" data-name="Layer 1" xmlns="http://www.w3.org/2000/svg" viewBox="0 0 1200 800">
  <defs>
    <style>
      .cls-1 {
        fill: #f05423;
      }

      .cls-1, .cls-2 {
        stroke-width: 0px;
      }

      .cls-2 {
        fill: #f0f8f0;
      }

      .cls-3 {
        fill: none;
        stroke: #f05423;
        stroke-miterlimit: 10;
      }
    </style>
  </defs>
  <rect class="cls-2" x="-.24" y=".84" width="1200.49" height="798.32"/>
  <g>
    <g>
      <g>
        <line class="cls-3" x1="183.87" y1="551.75" x2="212.44" y2="551.75"/>
        <line class="cls-3" x1="212.44" y1="580.33" x2="212.44" y2="551.75"/>
      </g>
      <g>
        <line class="cls-3" x1="212.44" y1="580.33" x2="241.01" y2="580.33"/>
        <line class="cls-3" x1="241.01" y1="608.9" x2="241.01" y2="580.33"/>
      </g>
    </g>
    <g>
      <line class="cls-3" x1="241.01" y1="608.9" x2="269.58" y2="608.9"/>
      <line class="cls-3" x1="269.58" y1="637.47" x2="269.58" y2="608.9"/>
    </g>
  </g>
  <g>
    <line class="cls-3" x1="988.08" y1="206.78" x2="1008.29" y2="186.58"/>
    <line class="cls-3" x1="1008.29" y1="206.78" x2="988.08" y2="186.58"/>
  </g>
  <g>
    <circle class="cls-1" cx="974.95" cy="453.07" r="2.38"/>
    <circle class="cls-1" cx="986.06" cy="453.07" r="2.38"/>
    <circle class="cls-1" cx="997.17" cy="453.07" r="2.38"/>
    <circle class="cls-1" cx="1008.29" cy="453.07" r="2.38"/>
    <circle class="cls-1" cx="1019.4" cy="453.07" r="2.38"/>
    <circle class="cls-1" cx="1030.51" cy="453.07" r="2.38"/>
    <circle class="cls-1" cx="1041.63" cy="453.07" r="2.38"/>
    <circle class="cls-1" cx="974.95" cy="463.13" r="2.38"/>
    <circle class="cls-1" cx="986.06" cy="463.13" r="2.38"/>
    <circle class="cls-1" cx="997.17" cy="463.13" r="2.38"/>
    <circle class="cls-1" cx="1008.29" cy="463.13" r="2.38"/>
    <circle class="cls-1" cx="1019.4" cy="463.13" r="2.38"/>
    <circle class="cls-1" cx="1030.51" cy="463.13" r="2.38"/>
    <circle class="cls-1" cx="1041.63" cy="463.13" r="2.38"/>
    <circle class="cls-1" cx="974.95" cy="473.2" r="2.38"/>
    <circle class="cls-1" cx="986.06" cy="473.2" r="2.38"/>
    <circle class="cls-1" cx="997.17" cy="473.2" r="2.38"/>
    <circle class="cls-1" cx="1008.29" cy="473.2" r="2.38"/>
    <circle class="cls-1" cx="1019.4" cy="473.2" r="2.38"/>
    <circle class="cls-1" cx="1030.51" cy="473.2" r="2.38"/>
    <circle class="cls-1" cx="1041.63" cy="473.2" r="2.38"/>
    <circle class="cls-1" cx="974.95" cy="483.27" r="2.38"/>
    <circle class="cls-1" cx="986.06" cy="483.27" r="2.38"/>
    <circle class="cls-1" cx="997.17" cy="483.27" r="2.38"/>
    <circle class="cls-1" cx="1008.29" cy="483.27" r="2.38"/>
    <circle class="cls-1" cx="1019.4" cy="483.27" r="2.38"/>
    <circle class="cls-1" cx="1030.51" cy="483.27" r="2.38"/>
    <circle class="cls-1" cx="1041.63" cy="483.27" r="2.38"/>
    <circle class="cls-1" cx="974.95" cy="493.33" r="2.38"/>
    <circle class="cls-1" cx="986.06" cy="493.33" r="2.38"/>
    <circle class="cls-1" cx="997.17" cy="493.33" r="2.38"/>
    <circle class="cls-1" cx="1008.29" cy="493.33" r="2.38"/>
    <circle class="cls-1" cx="1019.4" cy="493.33" r="2.38"/>
    <circle class="cls-1" cx="1030.51" cy="493.33" r="2.38"/>
    <circle class="cls-1" cx="1041.63" cy="493.33" r="2.38"/>
    <circle class="cls-1" cx="974.95" cy="503.4" r="2.38"/>
    <circle class="cls-1" cx="986.06" cy="503.4" r="2.38"/>
    <circle class="cls-1" cx="997.17" cy="503.4" r="2.38"/>
    <circle class="cls-1" cx="1008.29" cy="503.4" r="2.38"/>
    <circle class="cls-1" cx="1019.4" cy="503.4" r="2.38"/>
    <circle class="cls-1" cx="1030.51" cy="503.4" r="2.38"/>
    <circle class="cls-1" cx="1041.63" cy="503.4" r="2.38"/>
    <circle class="cls-1" cx="974.95" cy="513.47" r="2.38"/>
    <circle class="cls-1" cx="986.06" cy="513.47" r="2.38"/>
    <circle class="cls-1" cx="997.17" cy="513.47" r="2.38"/>
    <circle class="cls-1" cx="1008.29" cy="513.47" r="2.38"/>
    <circle class="cls-1" cx="1019.4" cy="513.47" r="2.38"/>
    <circle class="cls-1" cx="1030.51" cy="513.47" r="2.38"/>
    <circle class="cls-1" cx="1041.63" cy="513.47" r="2.38"/>
  </g>
  <g>
    <circle class="cls-3" cx="168.84" cy="209.64" r="12.96"/>
    <circle class="cls-3" cx="181.8" cy="225.76" r="6.48"/>
    <circle class="cls-3" cx="188.28" cy="203.16" r="6.48"/>
  </g>
</svg>